<svg id="Layer_1" data-name="Layer 1" xmlns="http://www.w3.org/2000/svg" viewBox="0 0 53 52"><defs><style>.cls-1{fill:red;}</style></defs><path class="cls-1" d="M52.78,16.59c-3.46,0-6.84.06-9.79.19a41.64,41.64,0,0,0-9.67,1.46,9.43,9.43,0,0,0-.69-2.7.21.21,0,0,0-.28-.11.22.22,0,0,0-.12.28c1.51,3.58.24,7-.36,8.57l0,.08c-.13.35-.33.73-.55,1.18a16.54,16.54,0,0,0-2,7.5c-.2,5-2.29,6.84-4.6,8.44a21.81,21.81,0,0,0-2.14,1.7l-.34-.31a.21.21,0,0,0-.3,0,.22.22,0,0,0,0,.3l.31.29-.11.1a1.18,1.18,0,0,0-1-.28,2,2,0,0,0-1,.56,6.87,6.87,0,0,0-1.79,3.7A2.57,2.57,0,0,1,17.67,46,3.77,3.77,0,0,1,18.88,43a6,6,0,0,1,3.21-1.7.2.2,0,0,0,.18-.24.21.21,0,0,0-.24-.18l-.11,0a5.73,5.73,0,0,1,2.89-3.75,2.91,2.91,0,0,0,.2.35.23.23,0,0,0,.18.09.25.25,0,0,0,.12,0,.21.21,0,0,0,.05-.3c-.9-1.27-.54-4.49.37-5.4l0,0s0,0,0,0l0-.05s0,0,0,0h0a.16.16,0,0,0,0-.07v0a.16.16,0,0,0,0-.07h0a9,9,0,0,1-2.28-5.34c-.13-2.25.22-4.81,3.65-8.25a.21.21,0,0,0-.3-.3c-3.56,3.56-3.92,6.22-3.78,8.58a9.29,9.29,0,0,0,2.23,5.42c-2,1.17-5.75,1-8.73-1.3-1.59-1.23-2.45-2.66-2.44-6.62h.3a12.15,12.15,0,0,0,1.49-.09,7.31,7.31,0,0,0,4.29-1.87c2.33-2.34,3.11-5.46,2.89-6.56A.22.22,0,0,0,22.8,15a.22.22,0,0,0-.17.26c.17.83-.4,3.78-2.78,6.16-2,2-5.31,1.88-6.17,1.82a3.75,3.75,0,0,0,.37-1.37.21.21,0,0,0-.21-.22.22.22,0,0,0-.22.22,3.93,3.93,0,0,1-1.34,2.51,3.49,3.49,0,0,0-.2-1.21.21.21,0,1,0-.4.14c.93,2.6-2.07,6.8-3.63,7.77a1.78,1.78,0,0,1-1.58.35.86.86,0,0,1-.38-.28,5.42,5.42,0,0,0,2.28-3,3,3,0,0,0,.06-2.36A1.17,1.17,0,0,0,8,25.4l0-.11a.44.44,0,0,1,.37.22.24.24,0,0,0,.19.12l.1,0a.22.22,0,0,0,.1-.29.84.84,0,0,0-.64-.45v0c.25-.88.47-1.64.64-2.08a22.18,22.18,0,0,1,3.29-5.42C17.88,9.94,28.59,7,39,4.09a.21.21,0,1,0-.12-.41C28.41,6.57,17.63,9.57,11.71,17.06A22.65,22.65,0,0,0,8.35,22.6c-.17.46-.39,1.23-.64,2.11-.61,2.13-1.45,5-2.24,5.83a.21.21,0,0,0-.06.21,1.54,1.54,0,0,0,.89,1.1,1.5,1.5,0,0,0,.55.11,2.84,2.84,0,0,0,1.43-.49,10.94,10.94,0,0,0,4-6.55,3.1,3.1,0,0,0,1.21-1.25l.18,0c0,2.57.34,4.13,1,5.26-1.65,1.55-2.29,3.23-1.9,5a3.42,3.42,0,0,0-3.09,1.21,11.71,11.71,0,0,0-1.73,2.29,6.27,6.27,0,0,0-6.28.83c-1,.83-2,2.71-1.57,3.3a.34.34,0,0,0,.3.16.49.49,0,0,0,.24-.07A6.1,6.1,0,0,1,4,41.23a8.94,8.94,0,0,0-.86.44L3,41.76c-.76.49-2.8,1.81-2.11,4.07h0s0,0,0,0l0,0H1L1,46h.2a32.54,32.54,0,0,1,6.49-1.64c.81-.14,1.9-.31,2.74-.37a4.15,4.15,0,0,0-1.28,3,1.39,1.39,0,0,0,.64,1.14l.11,0a.23.23,0,0,0,.14,0,38.64,38.64,0,0,1,7.81-4.52,3.9,3.9,0,0,0-.62,2.52,2.73,2.73,0,0,0,1.39,2.22l.09,0h.08a.23.23,0,0,0,.12-.12,16.72,16.72,0,0,1,3.72-4.53l.06,0s0,0,0,0a23.05,23.05,0,0,1,2.2-1.77c2.41-1.66,4.58-3.59,4.79-8.78a16.13,16.13,0,0,1,2-7.32c.23-.46.43-.85.57-1.22l0-.08a13.71,13.71,0,0,0,1.09-5.76h0A41.45,41.45,0,0,1,43,17.21C46,17.08,49.33,17,52.78,17A.22.22,0,0,0,53,16.8.21.21,0,0,0,52.78,16.59ZM5.86,30.75c.72-.83,1.39-2.94,2-4.92a.88.88,0,0,1,.24.26,2.61,2.61,0,0,1-.11,2A5,5,0,0,1,5.88,30.8ZM.57,40.61a5.18,5.18,0,0,1,1.37-2,5.92,5.92,0,0,1,6.52-.46A.23.23,0,0,0,8.75,38a.22.22,0,0,0-.1-.29,2.2,2.2,0,0,0-.31-.15A11,11,0,0,1,10,35.45a2.75,2.75,0,0,1,3.75-.66.2.2,0,0,0,.29-.07.21.21,0,0,0-.07-.29,3.58,3.58,0,0,0-.71-.35c-.46-1.69.08-3.25,1.66-4.77a6.44,6.44,0,0,0,1.35,1.36,9.45,9.45,0,0,0,1.51.95,8.1,8.1,0,0,0-2.22,5.74,5.06,5.06,0,0,0-2.65.28,6,6,0,0,0-3.22,3,9.23,9.23,0,0,0-4.7.25.68.68,0,0,0-.1-.28,2.18,2.18,0,0,0-1.78-.91A3.38,3.38,0,0,0,.57,40.61Zm.09.55A2.84,2.84,0,0,1,2.88,40.1h.18a1.75,1.75,0,0,1,1.44.7.59.59,0,0,1,0,.08A6.87,6.87,0,0,0,.66,41.16Zm1.32,4c1.48-1.42,2.62-1.69,4.31-1A40.5,40.5,0,0,0,2,45.19Zm5.66-1.3h0l0,0-.35-.31a.22.22,0,0,0-.31,0,.22.22,0,0,0,0,.3l.13.12h0C4.44,42.8,3,43.48,1.24,45.32c-.27-1.72,1.37-2.79,2-3.2L3.39,42a8.9,8.9,0,0,1,7-.76.21.21,0,1,0,.14-.4,4.58,4.58,0,0,0-.49-.15A5.76,5.76,0,0,1,13,38a4.72,4.72,0,0,1,3.66.1A.21.21,0,0,0,17,38a.21.21,0,0,0-.12-.28,7.14,7.14,0,0,0-.85-.29,7.47,7.47,0,0,1,2.17-5.63,10.64,10.64,0,0,0,3.36.93,5.17,5.17,0,0,0-.92,4.67,3.49,3.49,0,0,0-1.8.15,6.58,6.58,0,0,0-3.49,3.66,8.33,8.33,0,0,0-4.4,2.27A24,24,0,0,0,7.64,43.89Zm2.41,3.66A4.92,4.92,0,0,1,12.57,45a2.22,2.22,0,0,1,1.78-.17A38.34,38.34,0,0,0,10.05,47.55Zm5.27-3.26L15,43.87a.22.22,0,0,0-.31,0,.21.21,0,0,0,0,.3l.28.36-.15.08a2.42,2.42,0,0,0-2.41,0,5.72,5.72,0,0,0-2.69,2.69,1.42,1.42,0,0,1-.09-.37,4,4,0,0,1,1.55-3.05c1.78-1.6,3.61-2.4,5-2.2a.21.21,0,0,0,.24-.18.2.2,0,0,0-.18-.24,2.83,2.83,0,0,0-.41,0A6,6,0,0,1,19,38a3,3,0,0,1,2.41.15.22.22,0,0,0,.29-.09.2.2,0,0,0-.09-.29,2.76,2.76,0,0,0-.47-.2.22.22,0,0,0,0-.08,4.71,4.71,0,0,1,1-4.69h.3a6.32,6.32,0,0,0,2.58-.51,6.84,6.84,0,0,0-.29,4.45A6.08,6.08,0,0,0,21.46,41a6.52,6.52,0,0,0-2.88,1.71l-.23.25A25.24,25.24,0,0,0,15.32,44.29Zm3.47,3.24a6.3,6.3,0,0,1,1.66-3.37,1.48,1.48,0,0,1,.74-.45.73.73,0,0,1,.61.16A17.88,17.88,0,0,0,18.79,47.53Z"/></svg>